<svg xmlns="http://www.w3.org/2000/svg" width="149.945" height="41.963" viewBox="0 0 149.945 41.963">
  <g id="gov2019" transform="translate(-4.1 -1.6)">
    <path id="Caminho_2196" data-name="Caminho 2196" d="M4.1,36.2H59.185V22.121C44.286,19.8,16.538,26.768,4.1,36.2Z" transform="translate(0 7.363)" fill="#fff"/>
    <path id="Caminho_2197" data-name="Caminho 2197" d="M54.851,7.044a3.215,3.215,0,0,0-.82-2.324,3.215,3.215,0,0,0-2.324-.82h-2.87l-.137.137v9.021h1.64V10.051h1.23a4.214,4.214,0,0,0,1.367-.137,2.2,2.2,0,0,0,.957-.547,2.452,2.452,0,0,0,.683-.957,4.857,4.857,0,0,0,.273-1.367Zm-1.914.547a1.036,1.036,0,0,1-.273.547c-.137.137-.137.273-.273.41a.5.5,0,0,1-.41.137h-1.5V5.267h1.23a1.024,1.024,0,0,1,.683.137l.41.41c.137.137.137.273.273.547v.547a1.232,1.232,0,0,0-.137.683Z" transform="translate(16.362 0.844)" fill="#fff"/>
    <path id="Caminho_2198" data-name="Caminho 2198" d="M57,3.9H55.907L52.9,12.921v.137a1.734,1.734,0,0,0,.82.137h.82l.683-2.05H58.5l.273,1.23a2.225,2.225,0,0,0,.41.82,1.573,1.573,0,0,0,1.777,0L57.957,4.037C57.684,4.037,57.411,3.9,57,3.9ZM55.77,9.641,56.317,8l.547-2.187H57l.683,2.6.41,1.367H55.77Z" transform="translate(17.903 0.844)" fill="#fff"/>
    <path id="Caminho_2199" data-name="Caminho 2199" d="M59,3.9V5.54h2.324v7.654h1.914V5.54h1.23a1.024,1.024,0,0,0,.683-.137.71.71,0,0,0,.273-.547,1.024,1.024,0,0,0-.137-.683H59V3.9Z" transform="translate(20.141 0.844)" fill="#fff"/>
    <path id="Caminho_2200" data-name="Caminho 2200" d="M70.788,12.2l-.273-.547-.547-1.367-.41-.82c-.137-.273-.273-.273-.547-.41.273-.137.41-.273.683-.41.137-.137.41-.273.547-.547.137,0,.273-.273.41-.547a1.734,1.734,0,0,0,.137-.82,2.4,2.4,0,0,0-.82-2.05A3.159,3.159,0,0,0,67.644,4H64.5v9.021h1.777V9.6h.82a1.943,1.943,0,0,1,.82.273,2.988,2.988,0,0,1,.41.683l.547,1.64a2.225,2.225,0,0,0,.41.82,1.044,1.044,0,0,0,.683.273,1.024,1.024,0,0,0,.683-.137,1.887,1.887,0,0,0,.547-.41c-.137-.137-.273-.41-.41-.547Zm-3.28-4.1h-1.23V5.23h1.23c.957,0,1.367.547,1.367,1.5S68.464,8.1,67.507,8.1Z" transform="translate(22.159 0.88)" fill="#fff"/>
    <path id="Caminho_2201" data-name="Caminho 2201" d="M76.7,3.9H75.607L72.6,12.921v.137a1.734,1.734,0,0,0,.82.137h.82l.683-2.05h3.144l.273,1.23a4.55,4.55,0,0,0,.41.82,1.573,1.573,0,0,0,1.777,0l-2.87-9.158c-.273,0-.683-.137-.957-.137ZM75.47,9.641l.41-1.777.547-2.187h.137l.683,2.6.41,1.367H75.47Z" transform="translate(25.13 0.844)" fill="#fff"/>
    <path id="Caminho_2202" data-name="Caminho 2202" d="M84.8,3.9H83.707L80.7,12.921v.137a1.734,1.734,0,0,0,.82.137h.82l.683-2.05h3.144l.41,1.093a4.55,4.55,0,0,0,.41.82,1.573,1.573,0,0,0,1.777,0L85.757,4.037c-.273,0-.547-.137-.957-.137ZM83.57,9.641,84.117,8l.547-2.187H84.8l.683,2.6.41,1.367H83.57V9.641Z" transform="translate(28.102 0.844)" fill="#fff"/>
    <path id="Caminho_2203" data-name="Caminho 2203" d="M98.8,3.9H97.707L94.7,12.921v.137a1.734,1.734,0,0,0,.82.137h.82l.683-2.05h3.144l.41,1.093a4.55,4.55,0,0,0,.41.82,1.573,1.573,0,0,0,1.777,0L99.757,4.037c-.273,0-.547-.137-.957-.137ZM97.57,9.641,98.117,8l.547-2.187H98.8l.683,2.6.41,1.367H97.57Z" transform="translate(33.238 0.844)" fill="#fff"/>
    <path id="Caminho_2204" data-name="Caminho 2204" d="M107.788,5.267a2.181,2.181,0,0,0-1.23-.957,3.784,3.784,0,0,0-1.777-.41h-3.144l-.137.137v9.021l.137.137h3.007a4.65,4.65,0,0,0,1.367-.137,2.747,2.747,0,0,0,1.093-.547,2.721,2.721,0,0,0,1.093-1.64,6.035,6.035,0,0,0,.273-2.324,7.794,7.794,0,0,0-.137-1.777,6.663,6.663,0,0,0-.547-1.5ZM106.694,9.5c0,.273-.137.547-.137.82a1.044,1.044,0,0,1-.273.683,1.067,1.067,0,0,1-.547.547c-.137,0-.273.137-.547.137h-1.777V5.4h1.5a1.648,1.648,0,0,1,1.64,1.093,2.575,2.575,0,0,1,.273,1.093V8.684l-.137.82Z" transform="translate(35.733 0.844)" fill="#fff"/>
    <path id="Caminho_2205" data-name="Caminho 2205" d="M112.157,4.037c-.273,0-.547-.137-.957-.137h-1.093L107.1,12.921v.137a1.734,1.734,0,0,0,.82.137h.82l.683-2.05h3.144l.273,1.23a4.548,4.548,0,0,0,.41.82,1.573,1.573,0,0,0,1.777,0l-2.87-9.158Zm-2.187,5.6L110.517,8l.547-2.187h.137l.683,2.6.41,1.367H109.97V9.641Z" transform="translate(37.787 0.844)" fill="#fff"/>
    <path id="Caminho_2206" data-name="Caminho 2206" d="M70.4,4.028v9.158h1.777V4.028H71.22a.871.871,0,0,0-.82,0Z" transform="translate(24.323 0.853)" fill="#fff"/>
    <path id="Caminho_2207" data-name="Caminho 2207" d="M94.681,3.9a3.784,3.784,0,0,0-1.23.137l-.957,3.691c-.273,1.093-.41,1.777-.547,2.324h-.137l-.547-2.324-.957-3.691c-.273,0-.683-.137-1.093-.137a3.784,3.784,0,0,0-1.23.137L87.3,13.058c.273,0,.547.137.82.137h.82l.273-4.237.137-2.87h.137l1.5,5.6H92.9l1.5-5.741h.137l.137,2.87.273,4.237h.82a1.734,1.734,0,0,0,.82-.137l-.683-8.885a3.784,3.784,0,0,0-1.23-.137Z" transform="translate(30.523 0.844)" fill="#fff"/>
    <path id="Caminho_2208" data-name="Caminho 2208" d="M55.247,4.2l3.007-1.23a1.943,1.943,0,0,0-.273-.82,1.887,1.887,0,0,0-.41-.547L54.7,3.377c0,.137.137.273.137.41Z" transform="translate(18.563)" fill="#fff"/>
    <path id="Caminho_2209" data-name="Caminho 2209" d="M63.1,29.1v3.691a.5.5,0,0,0,.137.41c0,.137.137.137.273.137h1.64c.273,0,.547-.137.547-.41v-.273H63.783V31.56H65.15v-.547H63.783V29.92H65.7v-.683H63.1Z" transform="translate(21.645 10.089)" fill="#fff"/>
    <path id="Caminho_2210" data-name="Caminho 2210" d="M84.8,29.1v4.1h.82V31.424h1.367v-.547H85.62V29.783h1.367c.137,0,.273,0,.273-.137.137,0,.137-.137.137-.273V29.1H84.8Z" transform="translate(29.606 10.089)" fill="#fff"/>
    <path id="Caminho_2211" data-name="Caminho 2211" d="M89,29.1v3.691a.5.5,0,0,0,.137.41c0,.137.137.137.273.137h1.64c.273,0,.547-.137.547-.41v-.273H89.683V31.56H91.05v-.547H89.683V29.92H91.46v-.683H89V29.1Z" transform="translate(31.147 10.089)" fill="#fff"/>
    <path id="Caminho_2212" data-name="Caminho 2212" d="M98.3,29.1v3.691a.5.5,0,0,0,.137.41c0,.137.137.137.273.137h1.64c.273,0,.547-.137.547-.41v-.273H98.983V31.56h1.367v-.547H98.983V29.92h1.777v-.683H98.3V29.1Z" transform="translate(34.559 10.089)" fill="#fff"/>
    <path id="Caminho_2213" data-name="Caminho 2213" d="M60.9,29.137l-.82,3.417v-.137a2.575,2.575,0,0,0-.273-1.093l-.547-1.914a.483.483,0,0,0-.41-.41,1.033,1.033,0,0,0-.547.137l1.093,3.691a.477.477,0,0,0,.137.273h.957l1.23-4.1h-.41C61.034,29,61.034,29,60.9,29.137Z" transform="translate(19.884 10.052)" fill="#fff"/>
    <path id="Caminho_2214" data-name="Caminho 2214" d="M112,29v3.691a.5.5,0,0,0,.137.41c0,.137.137.137.273.137h1.5c.273,0,.547-.137.547-.41v-.273h-1.64V29.547a.483.483,0,0,0-.547-.547H112Z" transform="translate(39.585 10.052)" fill="#fff"/>
    <path id="Caminho_2215" data-name="Caminho 2215" d="M49.993,29.21a1.887,1.887,0,0,0-.547.41,2.987,2.987,0,0,0-.41.683,2.027,2.027,0,0,0-.137.957,1.734,1.734,0,0,0,.137.82c.137.273.137.547.273.683a1.887,1.887,0,0,0,.547.41,1.48,1.48,0,0,0,.82.137,3.467,3.467,0,0,0,1.64-.273V31.4a.5.5,0,0,0-.547-.547h-.957l-.137.273c0,.137,0,.273.137.273a.477.477,0,0,0,.273.137h.41v.957h-.683c-.683,0-1.093-.547-1.093-1.5s.41-1.5,1.093-1.5a3.217,3.217,0,0,1,1.093.273c.137,0,.137-.137.273-.273a.477.477,0,0,1,.137-.273,2.637,2.637,0,0,0-1.367-.41c-.547.273-.683.273-.957.41Z" transform="translate(16.436 9.979)" fill="#fff"/>
    <path id="Caminho_2216" data-name="Caminho 2216" d="M74.97,29c-.137,0-.273,0-.273.137s-.137.273-.137.41V32.28l-.41-.957L73.057,29H72.1v4.1h.82V29.957l.41.82L74.424,33.1h1.093V29H74.97Z" transform="translate(24.947 10.052)" fill="#fff"/>
    <path id="Caminho_2217" data-name="Caminho 2217" d="M56.57,29.547a1.887,1.887,0,0,0-.547-.41,1.777,1.777,0,0,0-1.367,0,1.887,1.887,0,0,0-.547.41,1.044,1.044,0,0,0-.273.683,2.027,2.027,0,0,0-.137.957,2.361,2.361,0,0,0,.683,1.777,1.552,1.552,0,0,0,1.093.41,1.024,1.024,0,0,0,.683-.137,1.887,1.887,0,0,0,.547-.41,1.044,1.044,0,0,0,.273-.683,2.027,2.027,0,0,0,.137-.957,2.326,2.326,0,0,0-.137-.957c-.137-.273-.273-.41-.41-.683Zm-1.23,3.144c-.547,0-.957-.547-.957-1.5s.273-1.5.957-1.5c.547,0,.957.547.957,1.5C56.16,32.144,55.887,32.691,55.34,32.691Z" transform="translate(18.196 10.052)" fill="#fff"/>
    <path id="Caminho_2218" data-name="Caminho 2218" d="M80.144,30.23a1.044,1.044,0,0,0-.273-.683,1.887,1.887,0,0,0-.547-.41A1.232,1.232,0,0,0,78.64,29a1.024,1.024,0,0,0-.683.137,1.887,1.887,0,0,0-.547.41,1.044,1.044,0,0,0-.273.683,2.027,2.027,0,0,0-.137.957,2.361,2.361,0,0,0,.683,1.777,1.552,1.552,0,0,0,1.093.41,1.024,1.024,0,0,0,.683-.137,1.887,1.887,0,0,0,.547-.41,1.044,1.044,0,0,0,.273-.683,2.027,2.027,0,0,0,.137-.957,8.713,8.713,0,0,0-.273-.957Zm-1.5,2.46c-.547,0-.957-.547-.957-1.5s.273-1.5.957-1.5c.547,0,.957.547.957,1.5C79.46,32.144,79.187,32.691,78.64,32.691Z" transform="translate(26.744 10.052)" fill="#fff"/>
    <path id="Caminho_2219" data-name="Caminho 2219" d="M70.407,32.791c0-.137-.137-.137-.137-.273L70,31.97a.477.477,0,0,0-.137-.273c-.137-.137-.137-.137-.273-.137a.477.477,0,0,0,.273-.137c.137,0,.137-.137.273-.273a.477.477,0,0,1,.137-.273v-.41a1.818,1.818,0,0,0-.41-1.093c-.273-.273-.547-.273-1.093-.273H67.4v4.1h.82V31.56h.41a.5.5,0,0,1,.41.137l.273.273.273.683c0,.137.137.273.273.41s.137.137.273.137h.273c.137,0,.137-.137.273-.137-.137-.137-.273-.137-.273-.273Zm-1.5-1.777h-.547V29.647H68.9a.683.683,0,0,1,0,1.367Z" transform="translate(23.223 10.089)" fill="#fff"/>
    <path id="Caminho_2220" data-name="Caminho 2220" d="M109.324,29.1h-.957L107,33.2h.82l.273-.957h1.5l.137.547a.477.477,0,0,0,.137.273c.137,0,.273.137.41.137a.5.5,0,0,0,.41-.137L109.324,29.1Zm-1.093,2.46.273-.82a6.149,6.149,0,0,0,.273-1.093l.273,1.23.137.547h-.957v.137Z" transform="translate(37.75 10.089)" fill="#fff"/>
    <path id="Caminho_2221" data-name="Caminho 2221" d="M96.27,29.647a1.887,1.887,0,0,0-.547-.41,1.734,1.734,0,0,0-.82-.137H93.4v4.1h2.05c.137,0,.273-.137.547-.273a1.743,1.743,0,0,0,.547-.82,2.665,2.665,0,0,0,.137-1.093,1.734,1.734,0,0,0-.137-.82,1.036,1.036,0,0,0-.273-.547Zm-.41,1.914v.41c0,.137,0,.273-.137.273l-.273.273H94.22v-2.87H94.9a.75.75,0,0,1,.82.547c0,.137.137.273.137.41v.957Z" transform="translate(32.761 10.089)" fill="#fff"/>
    <path id="Caminho_2222" data-name="Caminho 2222" d="M105.607,32.791c0-.137-.137-.137-.137-.273l-.273-.547a.477.477,0,0,0-.137-.273c-.137-.137-.137-.137-.273-.137a.477.477,0,0,0,.273-.137c.137,0,.137-.137.273-.273a.477.477,0,0,1,.137-.273v-.41a1.818,1.818,0,0,0-.41-1.093c-.273-.273-.547-.273-1.093-.273H102.6v4.1h.82V31.56h.273a.5.5,0,0,1,.41.137l.273.273.273.683c0,.137.137.273.273.41s.137.137.273.137h.273c.137,0,.137-.137.273-.137-.137-.137-.137-.137-.137-.273Zm-1.5-1.777h-.547V29.647h.547a.646.646,0,0,1,.683.683C104.65,30.74,104.514,31.014,104.1,31.014Z" transform="translate(36.136 10.089)" fill="#fff"/>
    <path id="Caminho_2223" data-name="Caminho 2223" d="M80.218,12.8a5.633,5.633,0,0,0-1.64.137L72.7,30.843l.137.137a8.275,8.275,0,0,0,2.6,0L76.8,26.469h6.834l.957,3.144a2.643,2.643,0,0,0,.683,1.23,4.653,4.653,0,0,0,2.734,0L81.995,12.8H80.218Zm1.367,11.482H77.621l1.64-4.784c.547-1.64.82-2.87,1.093-3.827h.137c.41,1.64.957,3.28,1.367,4.784l1.23,3.827Z" transform="translate(25.167 4.109)" fill="#fff"/>
    <path id="Caminho_2224" data-name="Caminho 2224" d="M110.631,28.519a14.856,14.856,0,0,0-2.46.137V14.577a1.814,1.814,0,0,0-.41-1.367,1.671,1.671,0,0,0-1.23-.41h-1.093l-.137.137v16.4a2.309,2.309,0,0,0,.41,1.367,1.671,1.671,0,0,0,1.23.41h6.971c1.093,0,1.64-.41,1.777-1.367,0-.41.137-.683.137-1.093h-5.194Z" transform="translate(37.127 4.109)" fill="#fff"/>
    <path id="Caminho_2225" data-name="Caminho 2225" d="M73.055,28.419l-1.23-3.144a3.733,3.733,0,0,0-1.914-2.324,5.2,5.2,0,0,0,2.46-1.777,4.792,4.792,0,0,0,.957-3.144,4.689,4.689,0,0,0-1.64-3.964A6.6,6.6,0,0,0,67.178,12.7l-5.741.137-.137.137V31.016a10.085,10.085,0,0,0,2.87,0V23.635h2.187a2.319,2.319,0,0,1,1.777.547,4.726,4.726,0,0,1,.957,1.64l1.367,3.554a4.144,4.144,0,0,0,.683,1.367c.273.273,2.6.137,3.007-.547-.41-.137-.82-.82-1.093-1.777Zm-5.878-6.971H64.17V14.887h3.007c2.187,0,3.28,1.093,3.28,3.144a4.236,4.236,0,0,1-.683,2.324A3.1,3.1,0,0,1,67.178,21.448Z" transform="translate(20.985 4.072)" fill="#fff"/>
    <path id="Caminho_2226" data-name="Caminho 2226" d="M98.8,12.837V31.016a6.9,6.9,0,0,0,2.734,0V12.837a4.214,4.214,0,0,0-1.367-.137C99.757,12.7,99.21,12.837,98.8,12.837Z" transform="translate(34.742 4.072)" fill="#fff"/>
    <path id="Caminho_2227" data-name="Caminho 2227" d="M94.648,21.175,91.5,19.808a4.267,4.267,0,0,1-1.64-.957,1.867,1.867,0,0,1-.547-1.5,1.948,1.948,0,0,1,.82-1.64,3.91,3.91,0,0,1,2.324-.683,10.207,10.207,0,0,1,4.511,1.23,3.375,3.375,0,0,0,1.094-2.187A11.569,11.569,0,0,0,92.6,12.7a6.622,6.622,0,0,0-2.46.41A4.406,4.406,0,0,0,88.224,14.2a6.426,6.426,0,0,0-1.23,1.64,5.485,5.485,0,0,0-.41,2.05c0,2.05,1.23,3.554,3.691,4.647l3.144,1.367q2.46,1.025,2.46,2.87a1.854,1.854,0,0,1-.957,1.777,4.059,4.059,0,0,1-2.46.683,9.214,9.214,0,0,1-5.331-1.777,3.552,3.552,0,0,0-1.23,2.187,10.386,10.386,0,0,0,6.151,2.05,7.444,7.444,0,0,0,5.057-1.5,4.964,4.964,0,0,0,1.64-3.827,4.29,4.29,0,0,0-.957-2.87,7.582,7.582,0,0,0-3.144-2.324Z" transform="translate(30.01 4.072)" fill="#fff"/>
    <path id="Caminho_2228" data-name="Caminho 2228" d="M59.185,21.979,59.321,3.8H4.1V24.576L26.243,7.08C47.566,16.512,58.5,21.569,59.185,21.979Z" transform="translate(0 0.807)" fill="#fff"/>
    <path id="Caminho_2229" data-name="Caminho 2229" d="M60.082,22.988a4.16,4.16,0,0,0-1.093-1.093,4.276,4.276,0,0,0-1.367-.683,3.233,3.233,0,0,0,1.777-1.5,4.236,4.236,0,0,0,.683-2.324,4.531,4.531,0,0,0-1.5-3.554A6.677,6.677,0,0,0,54.2,12.6l-5.467.137-.137.137V30.916l.137.273h5.878A7.134,7.134,0,0,0,59.4,29.822,4.769,4.769,0,0,0,61.038,26a6.861,6.861,0,0,0-.273-1.64A4.276,4.276,0,0,0,60.082,22.988ZM51.47,14.924h2.87c2.05,0,3.007.957,3.007,2.734a3.01,3.01,0,0,1-.137,1.093c-.137.273-.273.683-.547.82a2.2,2.2,0,0,1-.957.547,4.219,4.219,0,0,1-1.5.273H51.47Zm6.561,12.165a2.2,2.2,0,0,1-.547.957,2.976,2.976,0,0,1-1.093.683,5.1,5.1,0,0,1-1.64.273H51.607V22.578h3.007a5.1,5.1,0,0,1,1.64.273,2.867,2.867,0,0,1,1.777,1.777,4.226,4.226,0,0,1,.273,1.093A6.016,6.016,0,0,0,58.031,27.089Z" transform="translate(16.325 4.036)" fill="#fff"/>
    <path id="Caminho_2230" data-name="Caminho 2230" d="M9.567,34.07C10.8,26.553,14.9,21.5,21.869,18.762a19.954,19.954,0,0,1,7.244-1.367c7.108,0,12.575,3.827,12.575,4.374-.547.137,6.834-.82,13.259-1.23C49.753,18.215,40.459,14.114,26.653,8.1L4.1,26.143V38.171c2.187-1.777,5.878-4.374,5.467-4.1Z" transform="translate(0 2.385)" fill="#fff"/>
    <path id="Caminho_2231" data-name="Caminho 2231" d="M27.122,16.4a17.115,17.115,0,0,0-6.561,1.367A17.647,17.647,0,0,0,9.9,29.932c6.014-3.827,12.575-7.381,27.337-10.525A19.7,19.7,0,0,0,27.122,16.4Z" transform="translate(2.128 5.43)" fill="#fff"/>
  </g>
</svg>
